<svg id="Layer_1" data-name="Layer 1" xmlns="http://www.w3.org/2000/svg" viewBox="0 0 139.66 181.17"><defs><style>.cls-1{fill:#251a19;}.cls-2{fill:#373133;}.cls-3{fill:#f3f0ec;}.cls-4{fill:#f8f5f0;}.cls-5{fill:#cebab2;}.cls-6{fill:#423c3e;}.cls-7{fill:#f8f6f3;}.cls-8{fill:#3e3739;}.cls-9{fill:#514b4c;}.cls-10{fill:#4a9672;}.cls-11{fill:#f1ece6;}.cls-12{fill:#d8d7d7;}.cls-13{fill:#59424a;}.cls-14{fill:#f6f7f7;}.cls-15{fill:#736a69;}</style></defs><title>poster</title><path class="cls-1" d="M386.51,152.3a31.65,31.65,0,0,1,3.35-7.05c.39-.62.91-1.11,0-1.78-7.88-5.73-10-14.16-11.11-23.17A94.62,94.62,0,0,1,383,78.05c.26-.76.64-1.42-.51-1.92-6.82-2.95-10.64-14.19-6.92-23.11,3.58-8.58,12.83-13.87,21.17-12a18.43,18.43,0,0,1,10.15,6.37c.79.94,1.38,1.19,2.51.48a60.24,60.24,0,0,1,15.33-6.66A35.14,35.14,0,0,0,442.26,30a4.41,4.41,0,0,1,.64-.57s.13,0,.39,0c-.12,2.43-.29,4.8-1.67,6.94-.21.33-1,.54-.51,1.18s.91-.06,1.34-.13a28.47,28.47,0,0,1,13.91,1.1,30.72,30.72,0,0,1-5.92,1.34c-.62-2.2-3-2.54-4.86-.69-3.38.52-6.74,1.14-9.67,3.07-.87.57-1.59.54-1.85-.46-.38-1.46-1.05-1.12-2-.59a38.46,38.46,0,0,1-7,2.88,67.73,67.73,0,0,0-24.46,14.19c-.31.17-.57.37-.45.79-.91,0-1.29.7-1.72,1.32s-1.26.86-1.34,1.71v0A36.88,36.88,0,0,0,387.68,76c-6.82,16.74-7.75,34.05-4.33,51.65a22.8,22.8,0,0,0,9.76,14.87,17.89,17.89,0,0,0,4.45,3.06c3.62,2.33,7.63,3.84,11.58,5.47l.51,0-.15-.47a4.63,4.63,0,0,0-.72-2.06c-.52-2.52-.52-2.49,2.07-2.36a13.49,13.49,0,0,1,9.78,5c.5.56.72,1.45,1.66,1.63,1.48-3.66,3-7.3,4.51-11.12-1.93,0-3.35,1.44-5.25.58l6.15-2.72.95-.31c.43-.24,1-.12,1.33-.61.91-.23,1.83-.43,2.72-.7,6.77-2.06,13.78-2.53,20.76-3.19a2.43,2.43,0,0,0,1.74,0,12.77,12.77,0,0,0,4.36-.16c3.93.08,7.85.15,11.77.27.7,0,1.85-.27,1.38,1.16-1.65,5-3.75,9.74-7.56,13.55a1.81,1.81,0,0,1-2.1.49c-7.88-2.41-15.49-5.43-22.37-10a5.49,5.49,0,0,0-5-.87,23.67,23.67,0,0,1-2.73.68,1.54,1.54,0,0,0-1.35.92l-5,13.12c1.58-.73,3-1.05,3.94-1.88,3.16-2.71,6.61-2.64,10.22-1.35,2.39.85,4.61,2.38,7.7,1.12-1.6,2.63-3.78,3.56-5.85,4.64l-3.55.89H437.3c-2.35.18-4.34-1-6.42-1.75-1-2.1-1.89-2.1-3.62,0a4.21,4.21,0,0,0-2.51,4.53,2.45,2.45,0,0,0,2.87,2.32c4.22-1,8.48-.69,12.74-.77.78.09,1.56.23,2.34.28,3.1.21,6.26,2,9.25-.5a4.66,4.66,0,0,1,2.27-.59c2.78-.4,6.54,1.35,7.53,3.45a22,22,0,0,1-2.44-.85,7.89,7.89,0,0,0-8,.4,2.19,2.19,0,0,0-1.37,1.66c-1.89.44-1.73,2.34-2.54,3.55a12.74,12.74,0,0,0,4.75,12.37,35.4,35.4,0,0,0,7.07,4.23c1,.5,1.4,0,1.86-.76,1.34-2.31,2.62-4.67,4.17-6.84a29.72,29.72,0,0,1,14.46-10.66c.84-.17,1.68-.4,2.54-.49,1.16-.12,1.45-.79,1.34-1.79a50,50,0,0,0-2.9-13.43c-1.71-4.28-1.62-4.32-5.42-1.82a7.51,7.51,0,0,0-1.45.37,64.43,64.43,0,0,1-14.34,4.65c-1.34.3-2.81,1.39-4.28.19.16-.41.55-.37.89-.47A70.57,70.57,0,0,0,467,150.68a5.61,5.61,0,0,0,2.18-1A45.67,45.67,0,0,0,484,140.19a5.92,5.92,0,0,0,2.19-2.14,6.3,6.3,0,0,0,2.14-2.6l.61-1.25c.54.06.75-.34,1-.7a32.37,32.37,0,0,0,4.73-11c2-8.15,1.55-16.29-.12-24.42,0-2-.7-3.83-1-5.75a52.16,52.16,0,0,0-6.15-17.75l.05-.15,0-.16c.05-.56-1.22-2.23-1.22-2.23a7.31,7.31,0,0,1-1-1.78L484.19,69l-.39-.63a4.19,4.19,0,0,0-1.18-1.8,56.91,56.91,0,0,0-13.46-14.31,32.83,32.83,0,0,0-10.46-5.6,7.09,7.09,0,0,0-3.2-1A5.18,5.18,0,0,0,453,45c-4.14-1.21-8.35-1-12.56-.57a18.08,18.08,0,0,1,5-4.18c.34,1.59,1.6,1.55,2.81,1.59a41.29,41.29,0,0,1,24.44,9.24,3.43,3.43,0,0,0,3.86.69c7.47-2.77,14.86-.57,20.36,5.85,4.84,5.63,6,14,2.74,19.92a8.25,8.25,0,0,1-2.7,3.37c-1.78,1-1.79,2.18-1.32,4.06,2.31,9.21,4.4,18.46,4.17,28.07-.34,13.48-5.9,24.17-17,31.86-1.84,1.28-2.29,2.07-1,4.11,3,4.83,3.81,10.27,3.58,15.88,0,.92-.21,1.64,1.2,1.62,8.39-.11,12,6,13.1,11.81,2.67,14.4-9.73,30.51-24.26,32.12-8.13.91-14.3-2.19-19.5-7.93a4.38,4.38,0,0,0-3.35-1.58,358.08,358.08,0,0,0-42.08.74c-.49,0-1.22-.13-1.38.4-.62,2-1.77,1-2.86.62-2.25-.86-8.18.54-9.82,2.31-3.53,3.79-9.12,5-14.48,2.92-8.45-3.2-13.53-9.69-17.11-17.61a38.8,38.8,0,0,1-2.71-10l.1-.85c.58-.2,1.16.68,1.73,0a2.76,2.76,0,0,1,.86,1.9A32.46,32.46,0,0,0,374,199.42c1.82,2.63,4.72,3.77,7.38,5.2a10.22,10.22,0,0,0,8.35.93,8.88,8.88,0,0,0,6.52-5.5,19.73,19.73,0,0,0,1.33-12.27c-1.36-6.72-3.85-12.86-9.15-17.54a16.49,16.49,0,0,0-9.23-6c-.76-.6-1.68-1.08-1.72-2.22,2.7-.25,4.86,1.44,7.46,2.18a33.83,33.83,0,0,1,.41-7.38c.8-.22,1.42.42,2.17.45,0,1.95.12,3.91,0,5.85a5.17,5.17,0,0,0,1.9,4.53c4.68,4.32,7.62,9.77,9.8,15.64a4,4,0,0,0,2.68,2.84,43.12,43.12,0,0,0,8.4,2,21.67,21.67,0,0,0,11-2.59c4.53-2.43,6.94-9.47,5.77-15.25-.76-3.8-2.3-6.93-5.95-8.69-6.9-3.71-12.82-2.75-17.76,4.26,1.23-4.92,5-8.16,9.28-8.61.48,0,1.9.1,1.16-.75-1.49-1.7-2.58-4.17-4.87-4.75a60.51,60.51,0,0,1-15-5.43c-.71-.4-1.47-.56-1.86.29-.62,1.37-1.94,2.4-1.93,4.06a1.63,1.63,0,0,0-1.57,1.22C388.16,153.38,387.43,153.21,386.51,152.3ZM409,193.4c-.63,2.28-1.28,4.56-1.9,6.84-.12.43-.66,1,0,1.31s.94-.48,1.1-1c.8-2.39,1.55-4.8,2.32-7.2.29-.73.63-1.44.86-2.18.13-.46.29-1.05-.42-1.24-.56-.14-.66.34-.87.72A9.07,9.07,0,0,0,409,193.4Zm26.06-40.15a4.74,4.74,0,0,0-3,.94c3.19,2.48,9.14,2.13,12.78-.67-8-3-10.18-3.24-12.24-1.09l1.57.09Zm16.22-12.88c4.63.21,9.26.23,13.89,0,2.54.51,2.73-1.94,4.63-3.15-9.5-.16-18.29.11-27.29.83C445.39,140.68,446.74,141,451.31,140.37Zm-52,61.24c5.32-.13,6.14-.61,7.45-4.81.29-.91,1.55-2.09.31-2.84-1-.62-2.13.52-3.1,1.1a2.23,2.23,0,0,0-.58.64c-.27.35-.5.76-1,.53s-.39-.71-.44-1.13a7.21,7.21,0,0,1,1.45-5.07c.6-.82.38-1.06-.35-1.38s-1.7-1-2.42-.68c-1,.46,0,1.4,0,2.13,0,.5,0,1,0,1.51.32,3.44-.5,6.72-1.32,10l-.1.18Zm52.87-59.91h-2.75a4.33,4.33,0,0,0,2.73,1.55,38.35,38.35,0,0,0,7,2.95c4.63,1.59,4.58,1.55,6.12-3.08.43-1.31,0-1.5-1.1-1.5Q458.17,141.68,452.18,141.7Zm26.18,65.58h0a15,15,0,0,0,7.11-3c6.55-4.66,10-11.38,11.57-19,1.24-5.84,0-11.18-5.13-15.05-4.53-2.1-9-1.7-13.56,0-5.86,2.3-11,5.48-14,11.33a68.36,68.36,0,0,0-5.71,9.9.9.9,0,0,1-.16-1.21c.44-.91,1.06-1.72-.37-2.49s-2.19,0-2.8,1a15.81,15.81,0,0,0-2,4.3c-.42,1.69-.59,3.28.57,4.75a29.46,29.46,0,0,0,14,10.23c3.22.44,6.44.7,9.6-.39C477.82,207.68,478.17,207.64,478.36,207.28ZM416.77,152c1.69,0,2.56,1.69,4.48,2.11a13.06,13.06,0,0,0-10-6.9c-1.12-.17-1.66.11-1.13,1.39a18.79,18.79,0,0,0,2.15,4.24c1.79,2.32,4,4,7.11,3.94.42,0,1,.1,1.07-.45.05-.27-.21-.66-.43-.91-1.07-1.16-2.18-2.3-3.27-3.44Zm72.51-97.07a1,1,0,0,0-.9-.42.91.91,0,0,0-.87-.47,13.11,13.11,0,0,0-9.24-.73c-.64.16-1.62.42-.76,1.44Q482,60.09,486.6,65.4l6.57,11.75a14.72,14.72,0,0,0,.3,1.47c.76,2.38,1,2.47,2.65.63,2.53-2.84,3.11-6.31,2.74-9.92-.67-6.43-3.72-11.38-9.59-14.41ZM443.57,164.38a49.09,49.09,0,0,0-15.62.34,23.52,23.52,0,0,1,1.47,5.64c.09.76.19,1.16,1.18.94a64,64,0,0,1,10.14-1.23l3.24.2c.62,0,1-.06,1.22-.83.42-1.44,1.08-2.81,1.67-4.28C445.89,164.52,444.69,164.61,443.57,164.38Zm-41.63-112c.88-.06,1.31-.85,2-1.2,1.61-.81,1.71-1.61.31-2.86-4.93-4.38-10.35-6.1-16.7-3.34-1.39,1-3,1.6-4.4,2.73-5.24,4.37-6.32,10.16-5.61,16.45a13.21,13.21,0,0,0,5.24,9.14c1.19.93,1.8.73,2.41-.61a41.4,41.4,0,0,1,5.36-8.6c1.4-1.91,3-3.65,4.58-5.42C397.21,56.31,400.08,54.89,401.94,52.37Zm29.68,145.76a187.2,187.2,0,0,1,21.21.92c-.79-1.39-1.38-2.38-1.92-3.4-.19-.36-.62-.87-.26-1.18,2-1.66,1.66-4.53,3.45-6.28,1.15-1.13.94-1.79-.52-2.72-4.16-2.67-7.75-5.91-8.43-11.23-.1-.73-.36-1.26-1.16-1.34a35.11,35.11,0,0,0-12.38.83c-.92.06-2.14-.12-2.11,1.23.08,3.48-1.54,6.34-3.13,9.24a10.44,10.44,0,0,0-2.61,2.61,28.59,28.59,0,0,1-6.61,2.63c-.54.1-.77.37-.55.9.9,2.18.44,4.59,1.11,6.8.29,1,.52,1.87,2,1.74C423.68,198.52,427.66,198.36,431.62,198.13Zm-1.31-57.41c-1.22-.11-1.83.13-2.2,1q-3.23,7.92-6.53,15.81c-.34.8-.08,1.13.6,1.51.92.51,1.16-.07,1.4-.71C425.8,152.57,428,146.77,430.31,140.72Zm-13.95,56.42c-.63-2.2-.27-4.25-.93-6.17-.27-.79-.68-1.21-1.58-1.1s-1,.72-.94,1.4A6.65,6.65,0,0,0,416.36,197.14Zm-4.77,2.66c1.09-.53,2.27-.29,3.41-.39.67,0,1.09-.53.46-.92-1.35-.85-2-2.23-3-3.35-.45-.49-.76-.32-1,.16a20.87,20.87,0,0,0-1.18,3C410.06,199.22,410.5,199.85,411.59,199.8Zm-7.9-6.52,3.75-1a1.62,1.62,0,0,0,1.33-1.75c-.07-1.17-1.11-.94-1.86-1C404.44,189.44,404.61,191.87,403.69,193.28Z" transform="translate(-361.87 -29.43)"/><path class="cls-1" d="M374,161.45a4.92,4.92,0,0,1,2-.2c.28,0,.53.1,1.2.19l1.05.12c1.62.37,2,.6,1.95.75,0,.32-1.63.28-1.76.86-.09.34.42.76.82,1-2.77-.38-4.53-.64-4.83-.74-.05,0-.29-.1-.41,0a.25.25,0,0,0-.06.13c-.09.25-.4.27-.62.5a.74.74,0,0,0-.21.54,8.25,8.25,0,0,0,.4-.86c-.11.31-.19.47-.25.46s-.05-.07-.07-.19a1.08,1.08,0,0,1-.64.37h-.28a5.33,5.33,0,0,0-.74.09,1.71,1.71,0,0,0-.67.41c-.55.46-.87.37-1.59.76-.89.49-.64.78-2,2a1.33,1.33,0,0,0-.54.92.92.92,0,0,0,.09.38l-.53.15-.37,1c-.16.34-.37.82-.58,1.41a14.92,14.92,0,0,0-.44,1.61,19.25,19.25,0,0,0-.69,4.13c0,1.41.26,2-.17,2.43a2.17,2.17,0,0,1-1.86.4c-.14-.71-1.7-9.33,4.28-15A14.89,14.89,0,0,1,374,161.45Z" transform="translate(-361.87 -29.43)"/><path class="cls-2" d="M448.29,41.85c-1.21,0-2.47,0-2.81-1.59.26-.24.66-.45.73-.74s-.41-.21-.63-.33c1.89-1.85,4.24-1.51,4.86.69C449.83,40.65,448.13,40.25,448.29,41.85Z" transform="translate(-361.87 -29.43)"/><path class="cls-3" d="M488.53,134.85s.1-.17.14-.15a.52.52,0,0,1-.18.43l-.05,0c-.18.16-.13.34-.26.65a1.84,1.84,0,0,1-.18.33,1.45,1.45,0,0,1-.15.23c-.05.07-.15.22-.31.41s-.21.24-.5.51l-.5.46a1.77,1.77,0,0,1-1.14.52c-.42-.05-.78-.51-.95-1.09l-.45,3a45.67,45.67,0,0,1-14.83,9.54c-1.4-1.22-1.65.19-2.18,1a70.57,70.57,0,0,1-10.94,3.83c-.34.1-.73.06-.89.47-.57.1-1.2-.19-1.73.23l-.88.22a46.74,46.74,0,0,1-9.14,1l-.81-.08c2.07-1.08,4.25-2,5.85-4.64-3.09,1.26-5.31-.27-7.7-1.12-3.61-1.29-7.06-1.36-10.22,1.35-1,.83-2.36,1.15-3.94,1.88l5-13.12a1.54,1.54,0,0,1,1.35-.92,23.67,23.67,0,0,0,2.73-.68,5.49,5.49,0,0,1,5,.87c6.88,4.57,14.49,7.59,22.37,10a1.81,1.81,0,0,0,2.1-.49c3.81-3.81,5.91-8.55,7.56-13.55.47-1.43-.68-1.14-1.38-1.16-3.92-.12-7.84-.19-11.77-.27,0-1.52,0-3,0-4.54,0-.65-.06-1.57.66-1.66,2.61-.34,2.49-2.14,2.39-4a94.91,94.91,0,0,0,9.9-1.74c-.19.44-.51.89,0,1.32a.23.23,0,0,0,.18,0c.52-.52-.18-.88-.17-1.34,2.07-1,4.21-1.86,6.21-3,6.67-3.74,8.7-9.34,6.14-16.53A30.93,30.93,0,0,0,474,88.72c0-1.21-.75-1.18-1.6-1A25.35,25.35,0,0,0,457,84.47c1.18-3.42.86-7,.87-10.48q0-10.5,0-21a5.82,5.82,0,0,0-.16-2.14c-.7-1.71-.66-3.13,1.05-4.19a32.83,32.83,0,0,1,10.46,5.6,56.91,56.91,0,0,1,13.46,14.31,3.39,3.39,0,0,1,.33.33,3.43,3.43,0,0,1,.39.51,4.33,4.33,0,0,1,.29.54c.07.17.13.31.17.42l.39.63c.21.26.48.6.78,1s.66,1,1.11,1.7a10.13,10.13,0,0,1,1,1.87,6.7,6.7,0,0,1,.28,1,52.16,52.16,0,0,1,6.15,17.75c.31,1.92,1,3.77,1,5.75-1.41.39-1.32,1.62-1.33,2.63,0,6.5,0,13,0,19.51,0,1,.12,2.07,1.47,2.28a32.37,32.37,0,0,1-4.73,11s-.49.5-.63.66a1.33,1.33,0,0,1-.14.15l-.13.12A6.05,6.05,0,0,1,488.53,134.85Zm-16.78,12.36a5.63,5.63,0,0,0,.72-.48,78.21,78.21,0,0,1,8.68-7.89c.35-.26.93-1,.29-1.47-.47-.39-.93.1-1.31.45-2.21,2.06-4.43,4.11-6.64,6.18-.74.69-1.45,1.42-2.13,2.17a1.12,1.12,0,0,0-.19.77C471.18,147,471.52,147.11,471.75,147.21Zm9.05-17.29c-.05-.12-.07-.31-.16-.35s-.23.08-.36.13c.05.12.07.31.16.35S480.67,130,480.8,129.92Z" transform="translate(-361.87 -29.43)"/><path class="cls-4" d="M462.62,124.28c.1,1.86.22,3.66-2.39,4-.72.09-.66,1-.66,1.66,0,1.51,0,3,0,4.54a12.77,12.77,0,0,1-4.36.16c0-.54-.27-.89-.88-.89s-.83.37-.86.91c-7,.66-14,1.13-20.76,3.19-.89.27-1.81.47-2.72.7,0-3-.05-5.9-.07-8.85a23.6,23.6,0,0,0,10.71.94,18,18,0,0,0,8.05-2.34c2.79-1.8,2.77-4.24,0-6a11.66,11.66,0,0,0-6-1.7c-5.43-.2-10.75.09-14.8,4.47-.85-.5-.85-1.59-1.53-2.22,3-2.71,4.24-6.52,5-10.11,1.64-7.93,1.51-15.83-4.19-22.53,1.38-.37,2.38-.94,1.29-2.56-.32-.48-.13-.8.3-1,1.14-.66,1.12-1.73,1.12-2.85,0-7.39,0-14.78-.05-22.17,0-1.62.76-3.5-1.07-4.81-.37-.25.08-.77.19-1.17a10.76,10.76,0,0,1,3.44-5.25l-3,.18c2.33-2,5.14-3.31,7.77-4.86,1-.61,2-1.47,3.33-1.25,4.21-.43,8.42-.64,12.56.57.5,1.47,1.46,1.19,2.49.66a7.09,7.09,0,0,1,3.2,1c-1.71,1.06-1.75,2.48-1.05,4.19a5.82,5.82,0,0,1,.16,2.14q0,10.5,0,21c0,3.51.31,7.06-.87,10.48a4.62,4.62,0,0,1-2.19.49c-.06-.46-.23-.88-.78-.77-.81.14-1,.75-.88,1.46l-.66.29c-1.14-.16-2.07,0-2,1.47a21.82,21.82,0,0,0-4.28,6.73,22.39,22.39,0,0,0-1.12,12.6l.15.47-.18.39,0,1.07v1.11a29.68,29.68,0,0,0,2.74,7.82c-.78,1,.09.76.58.82.87.52,1.2,1.5,1.93,2.18C453.86,123.91,458.15,124.34,462.62,124.28Z" transform="translate(-361.87 -29.43)"/><path class="cls-5" d="M440.45,44.44c-1.35-.22-2.3.64-3.33,1.25-2.63,1.55-5.44,2.83-7.77,4.86a48.16,48.16,0,0,0-7.51,4.69c-4.84,3.39-9.78,6.67-13.87,11a27.71,27.71,0,0,0-7.8,8.91,82.48,82.48,0,0,0-8.55,24.2c-.38,2.09-1.35,4.33-.17,6.53a9.5,9.5,0,0,1-.1,1.06c-1.43,6.68.48,10.91,6.28,14.39a54.6,54.6,0,0,0,9.12,3.89c-1,1-2.35.83-3.55,1.18-5.69,1.62-7.61,5.9-5.05,11.17a22.42,22.42,0,0,0,4.29,5.94c1.89,1.91,3.6,4.13,6.34,5a4.63,4.63,0,0,1,.72,2.06l-.36.45c-3.95-1.63-8-3.14-11.58-5.47-.68-1.94-2.3-3-3.89-4a2.27,2.27,0,0,0-.35-.77,23.64,23.64,0,0,1-6.77-14.17c-.32-2.43-.67-4.85-.86-7.3-.88-11-.6-21.93,1.93-32.75.9-3.87,2-7.71,3.17-11.47a38,38,0,0,1,5.58-10.38,2.92,2.92,0,0,0,.71-2.6v0c1.06-.09,1.53-.64,1.34-1.71.43-.62.81-1.32,1.72-1.32l.45-.79a67.73,67.73,0,0,1,24.46-14.19,38.46,38.46,0,0,0,7-2.88c.93-.53,1.6-.87,2,.59.26,1,1,1,1.85.46,2.93-1.93,6.29-2.55,9.67-3.07.22.12.71,0,.63.33s-.47.5-.73.74A18.08,18.08,0,0,0,440.45,44.44Z" transform="translate(-361.87 -29.43)"/><path class="cls-2" d="M387.5,157.19a42,42,0,0,1,1.75-4.24.86.86,0,0,0,.16-.27,1.43,1.43,0,0,1,.07-.32c0-.11.1-.22.12-.21s0,.19,0,.2.17-.15.24-.36a.46.46,0,0,0,0-.25,3.52,3.52,0,0,1,.24-1.16c0-1.66,1.3-2.7,1.92-4.06.39-.85,1.15-.69,1.86-.3,4.71,2.64,9.82,4.12,15,5.44,2.29.58,3.38,3.05,4.87,4.75.75.85-.67.69-1.16.74-4.32.45-8.05,3.69-9.28,8.61,4.94-7,10.87-8,17.76-4.25a3.86,3.86,0,0,0,.07,1.08,39.61,39.61,0,0,1,2.05,10.33,12.17,12.17,0,0,1-.88,6.12c-1.88,4.12-5.26,6.54-9.59,7.78-.87.24-2.12-.09-2.5,1.22a44.8,44.8,0,0,1-8.4-2,4,4,0,0,1-2.68-2.84c-2.17-5.87-5.12-11.33-9.79-15.64a5.16,5.16,0,0,1-1.91-4.53C387.62,161.11,387.5,159.14,387.5,157.19Z" transform="translate(-361.87 -29.43)"/><path class="cls-6" d="M453.43,155.21c.53-.42,1.16-.13,1.73-.23,1.47,1.2,2.94.11,4.28-.19a64.43,64.43,0,0,0,14.34-4.65,7.51,7.51,0,0,1,1.45-.37c3,5.46,3.89,11.45,4.44,17.53A29.72,29.72,0,0,0,465.21,178c-1.55,2.17-2.83,4.53-4.17,6.84-.46.8-.84,1.26-1.86.76a35.4,35.4,0,0,1-7.07-4.23A12.74,12.74,0,0,1,447.36,169c3.2,0,3.74-.75,2.54-3.55a2.19,2.19,0,0,1,1.37-1.66c1.94.38,3.87.8,5.82,1.14,2.78.48,5.11,1.94,7.58,4-.14-2.13-1.26-3.09-2-4.23a.91.91,0,0,0-.9-.45l0,0c-1-2.1-4.75-3.85-7.53-3.45a4.66,4.66,0,0,0-2.27.59c-3,2.55-6.15.71-9.25.5-.78-.05-1.56-.19-2.34-.28,0-1.25,0-2.41,1.69-1.12.38.29.7.79,1.28.43a1.35,1.35,0,0,0,.48-1.53,9.38,9.38,0,0,1-.4-2.93,46.74,46.74,0,0,0,9.14-1C453,156.07,453.27,155.81,453.43,155.21Z" transform="translate(-361.87 -29.43)"/><path class="cls-7" d="M408.78,148.49c-2.74-.86-4.45-3.08-6.34-5a22.42,22.42,0,0,1-4.29-5.94c-2.56-5.27-.64-9.55,5.05-11.17,1.2-.35,2.58-.17,3.55-1.18.7.17,1.4.38,2.11.51,6.18,1.11,12.29,1.76,17.53-2.85.68.63.68,1.72,1.53,2.22a4.4,4.4,0,0,0-.08,2.91c-.49.29-.77.7-.29,1.15s.76.14,1-.26l1.33.81c0,3,0,5.9.07,8.85-.31.49-.9.37-1.33.61-.66-.93-.84-.4-.95.31l-6.15,2.72c1.9.86,3.32-.59,5.25-.58-1.55,3.82-3,7.46-4.51,11.12-.94-.18-1.16-1.07-1.66-1.63a13.49,13.49,0,0,0-9.78-5C408.26,146,408.26,146,408.78,148.49Z" transform="translate(-361.87 -29.43)"/><path class="cls-6" d="M431.61,173.73A35.11,35.11,0,0,1,444,172.9c.8.08,1.06.61,1.16,1.34.68,5.32,4.27,8.56,8.43,11.23,1.46.93,1.67,1.59.52,2.72-1.79,1.75-1.48,4.62-3.45,6.28-.36.31.07.82.26,1.18.54,1,1.13,2,1.92,3.4a187.2,187.2,0,0,0-21.21-.92,40.36,40.36,0,0,1-.45-5.16c.21-2.95-.33-5.93.42-8.86.11-.44.25-1.1-.29-1.38s-.89.33-1.24.65a59.82,59.82,0,0,1-5.33,4.76c-1.6,1.14-2.45,3.3-4.9,3.75,1-2.2,3.36-2.94,3.93-5.08a10.44,10.44,0,0,1,2.61-2.61c1.48.16,2.17-1,2.89-1.9A11,11,0,0,0,431.61,173.73Z" transform="translate(-361.87 -29.43)"/><path class="cls-2" d="M467.87,208.1a29.46,29.46,0,0,1-14-10.23c-1.16-1.47-1-3.06-.57-4.75a15.81,15.81,0,0,1,2-4.3c.61-1,1.3-1.83,2.8-1s.81,1.58.37,2.49a.9.9,0,0,0,.16,1.21,68.36,68.36,0,0,1,5.71-9.9c1.3,1.53,3.75,2.18,3.57,4.88-.07,1,1,.69,1.69.79a6.74,6.74,0,0,1-.43,2.3,15.75,15.75,0,0,0,.83,11.62c-1.7-.27-2.36.4-2.2,2.15C468,204.91,467.87,206.51,467.87,208.1Z" transform="translate(-361.87 -29.43)"/><path class="cls-7" d="M397.08,62.06a2.92,2.92,0,0,1-.71,2.6A38,38,0,0,0,390.79,75c-1.2,3.76-2.27,7.6-3.17,11.47-2.53,10.82-2.81,21.74-1.93,32.75.19,2.45.54,4.87.86,7.3a23.64,23.64,0,0,0,6.77,14.17,2.27,2.27,0,0,1,.35.77,1.05,1.05,0,0,1-.56,1,22.8,22.8,0,0,1-9.76-14.87c-3.42-17.6-2.49-34.91,4.33-51.65A36.88,36.88,0,0,1,397.08,62.06Z" transform="translate(-361.87 -29.43)"/><path class="cls-2" d="M390.56,64.08a41.4,41.4,0,0,0-5.36,8.6c-.61,1.34-1.22,1.54-2.41.61a13.21,13.21,0,0,1-5.24-9.14c-.71-6.29.37-12.08,5.61-16.45,1.36-1.13,3-1.7,4.4-2.73l.4.4c-.23,1.75,1.08,4.22.24,5-2.09,1.93-.08,2.59.49,3.75.05.1,0,.28-.09.41-.91,2.46-.34,5-.25,7.45C388.41,63.6,389,64.27,390.56,64.08Z" transform="translate(-361.87 -29.43)"/><path class="cls-6" d="M388.43,170.24c5.3,4.68,7.79,10.82,9.15,17.54a19.73,19.73,0,0,1-1.33,12.27,8.88,8.88,0,0,1-6.52,5.5,5.26,5.26,0,0,0-1.63-.43c-2.14.18-2.76-1-2.76-2.86,0-.64,0-1.28,0-1.92,4.57-1.23,6.62-5.55,7-9.92.49-5.93-1.31-11.25-4.38-16.22C388.16,172.88,387.51,171.47,388.43,170.24Z" transform="translate(-361.87 -29.43)"/><path class="cls-8" d="M390.56,64.08c-1.59.19-2.15-.48-2.21-2.1-.09-2.49-.66-5,.25-7.45,0-.13.14-.31.09-.41-.57-1.16-2.58-1.82-.49-3.75.84-.78-.47-3.25-.24-5a16,16,0,0,1,8.66,2.26c2.06,1.11,4.43,2.19,5.32,4.74-1.86,2.52-4.73,3.94-6.8,6.29C393.57,60.43,392,62.17,390.56,64.08Z" transform="translate(-361.87 -29.43)"/><path class="cls-8" d="M423.76,186.81c-.57,2.14-3,2.88-3.93,5.08,2.45-.45,3.3-2.61,4.9-3.75a59.82,59.82,0,0,0,5.33-4.76c.35-.32.64-.95,1.24-.65s.4.94.29,1.38c-.75,2.93-.21,5.91-.42,8.86a40.36,40.36,0,0,0,.45,5.16c-4,.23-7.94.39-11.9.75-1.49.13-1.72-.79-2-1.74-.67-2.21-.21-4.62-1.11-6.8-.22-.53,0-.8.55-.9A28.59,28.59,0,0,0,423.76,186.81Z" transform="translate(-361.87 -29.43)"/><path class="cls-6" d="M493.17,77.15,486.6,65.4c.75-.61.44-1.45.46-2.2.11-3.05-.26-6.13.45-9.15a.91.91,0,0,1,.87.47.93.93,0,0,0,.9.42v0a1.63,1.63,0,0,0,.63,1.31c4.62,4.2,5.88,9.59,5.44,15.52C495.2,73.74,494.92,75.76,493.17,77.15Z" transform="translate(-361.87 -29.43)"/><path class="cls-8" d="M469.63,187.26c-.66-.1-1.76.23-1.69-.79.18-2.7-2.27-3.35-3.57-4.88,3-5.85,8.11-9,14-11.32a3.24,3.24,0,0,1-.47,1.82c-.71,1.41-.6,2.61.93,3.42A34.47,34.47,0,0,0,469.63,187.26Z" transform="translate(-361.87 -29.43)"/><path class="cls-9" d="M410.27,188.08c.37-1.31,1.63-1,2.49-1.22,4.34-1.24,7.72-3.66,9.6-7.78a12,12,0,0,0,.87-6.12,39.21,39.21,0,0,0-2.05-10.33,3.5,3.5,0,0,1-.06-1.08c3.65,1.76,5.19,4.89,5.95,8.69,1.17,5.78-1.24,12.82-5.77,15.25A21.67,21.67,0,0,1,410.27,188.08Z" transform="translate(-361.87 -29.43)"/><path class="cls-8" d="M443.41,156.41a9.38,9.38,0,0,0,.4,2.93,1.35,1.35,0,0,1-.48,1.53c-.58.36-.9-.14-1.28-.43-1.67-1.29-1.71-.13-1.69,1.12-4.26.08-8.52-.2-12.74.77a2.45,2.45,0,0,1-2.87-2.32,4.21,4.21,0,0,1,2.51-4.53c1.21-.46,2.42,1.15,3.62,0,2.08.78,4.07,1.93,6.42,1.75a1.12,1.12,0,0,0,1.22,1.12c.7,0,.45-.69.53-1.12l3.55-.89Z" transform="translate(-361.87 -29.43)"/><path class="cls-3" d="M440.74,170.07a64,64,0,0,0-10.14,1.23c-1,.22-1.09-.18-1.18-.94a23.52,23.52,0,0,0-1.47-5.64,49.09,49.09,0,0,1,15.62-.34C443,166.44,441.07,167.87,440.74,170.07Z" transform="translate(-361.87 -29.43)"/><path class="cls-9" d="M479.67,167.3c-.55-6.08-1.46-12.07-4.44-17.53,3.8-2.5,3.71-2.46,5.42,1.82a50,50,0,0,1,2.9,13.43c.11,1-.18,1.67-1.34,1.79C481.35,166.9,480.51,167.13,479.67,167.3Z" transform="translate(-361.87 -29.43)"/><path class="cls-9" d="M493.17,77.15c1.75-1.39,2-3.41,2.17-5.4.44-5.93-.82-11.32-5.44-15.52a1.63,1.63,0,0,1-.63-1.31c5.87,3,8.92,8,9.59,14.41.37,3.61-.21,7.08-2.74,9.92-1.64,1.84-1.89,1.75-2.65-.63A14.72,14.72,0,0,1,493.17,77.15Z" transform="translate(-361.87 -29.43)"/><path class="cls-2" d="M487.51,54.05c-.71,3-.34,6.1-.45,9.15,0,.75.29,1.59-.46,2.2q-4.55-5.33-9.09-10.64c-.86-1,.12-1.28.76-1.44A13.11,13.11,0,0,1,487.51,54.05Z" transform="translate(-361.87 -29.43)"/><path class="cls-9" d="M491.9,170.25c5.08,3.87,6.37,9.21,5.13,15.05-1.6,7.59-5,14.31-11.57,19a15,15,0,0,1-7.11,3,2.29,2.29,0,0,1,1.5-1.33,1.89,1.89,0,0,0,1.56-1.72,25.69,25.69,0,0,0,11-10c3.54-6.05,5.34-12.23,1.19-18.78.15-1-.48-1.71-.77-2.55S491.08,171.52,491.9,170.25Z" transform="translate(-361.87 -29.43)"/><path class="cls-6" d="M491.9,170.25c-.82,1.27.66,1.79,1,2.69s.92,1.57.77,2.55a9.75,9.75,0,0,0-8.63-2.43c-2.22.45-4.13,1.65-6.2,2.45-1.53-.81-1.64-2-.93-3.42a3.24,3.24,0,0,0,.47-1.82C482.85,168.55,487.37,168.15,491.9,170.25Z" transform="translate(-361.87 -29.43)"/><path class="cls-2" d="M364,179.44c.09-1.47.44-6.45,2.29-10.3a8.16,8.16,0,0,1,2.44-3.23,20.28,20.28,0,0,1,2.79-1.39,21.18,21.18,0,0,1,3.33-1.38c1.64-.29,4.06,0,4.38,1.07.23.81-.74,2-2.11,2.86-8.94,5-9.61,8.18-9.66,9.24,0,.22,0,.83,0,1.3a24.15,24.15,0,0,0,4.83,16.26c.84,1.16,2.34,1.79,2.62,3.37l-.87,2.18a32.46,32.46,0,0,1-9.17-18.08A2.76,2.76,0,0,0,364,179.44Z" transform="translate(-361.87 -29.43)"/><path class="cls-10" d="M416.79,152c1.09,1.14,2.2,2.28,3.27,3.44.22.25.48.64.43.91-.1.55-.65.44-1.07.45-3.12.05-5.32-1.62-7.11-3.94a18.79,18.79,0,0,1-2.15-4.24c-.53-1.28,0-1.56,1.13-1.39a13.06,13.06,0,0,1,10,6.9c-1.92-.42-2.79-2.15-4.48-2.11,0-.16,0-.4-.29-.16Z" transform="translate(-361.87 -29.43)"/><path class="cls-8" d="M481.41,204.24a1.89,1.89,0,0,1-1.56,1.72,2.29,2.29,0,0,0-1.5,1.33h0a.87.87,0,0,0-.89.43c-3.16,1.09-6.38.83-9.6.39,0-1.59.11-3.19,0-4.77-.16-1.75.5-2.42,2.2-2.15a8,8,0,0,0,7.3,3.47C478.69,204.59,480.05,204.38,481.41,204.24Z" transform="translate(-361.87 -29.43)"/><path class="cls-11" d="M494.66,122.45c-1.35-.21-1.46-1.24-1.47-2.28,0-6.5,0-13,0-19.51,0-1-.08-2.24,1.33-2.63C496.21,106.16,496.71,114.3,494.66,122.45Z" transform="translate(-361.87 -29.43)"/><path class="cls-11" d="M452.18,141.7q6,0,12-.08c1.08,0,1.53.19,1.1,1.5-1.54,4.63-1.49,4.67-6.12,3.08a38.35,38.35,0,0,1-7-2.95C452.17,142.73,452.17,142.22,452.18,141.7Z" transform="translate(-361.87 -29.43)"/><path class="cls-2" d="M399.31,201.61c.82-3.28,1.64-6.56,1.32-10,0-.5,0-1,0-1.51,0-.73-.94-1.67,0-2.13.72-.34,1.62.34,2.42.68s1,.56.35,1.38a7.21,7.21,0,0,0-1.45,5.07c.05.42-.07.91.44,1.13s.76-.18,1-.53a2.23,2.23,0,0,1,.58-.64c1-.58,2.07-1.72,3.1-1.1,1.24.75,0,1.93-.31,2.84-1.31,4.2-2.13,4.68-7.45,4.81Z" transform="translate(-361.87 -29.43)"/><path class="cls-9" d="M401.94,52.37c-.89-2.55-3.26-3.63-5.32-4.74A16,16,0,0,0,388,45.37l-.4-.4c6.35-2.76,11.77-1,16.7,3.34,1.4,1.25,1.3,2-.31,2.86C403.25,51.52,402.82,52.31,401.94,52.37Z" transform="translate(-361.87 -29.43)"/><path class="cls-8" d="M374,199.42l.87-2.18c.73.45,1.55.64,2.28,1.17,2.43,1.8,5.09,2.87,8.2,1.93,0,.64,0,1.28,0,1.92,0,1.84.62,3,2.76,2.86a5.26,5.26,0,0,1,1.63.43,10.22,10.22,0,0,1-8.35-.93C378.72,203.19,375.82,202.05,374,199.42Z" transform="translate(-361.87 -29.43)"/><path class="cls-5" d="M451.31,140.37c-4.57.65-5.92.31-8.77-2.34,9-.72,17.79-1,27.29-.83-1.9,1.21-2.09,3.66-4.63,3.15,1.13-2.26,1.13-2.28-1.35-2.27-3.81,0-7.61,0-11.42.34C450.74,138.58,450.58,139.08,451.31,140.37Z" transform="translate(-361.87 -29.43)"/><path class="cls-10" d="M434.23,152.52l-1.57-.09c2.06-2.15,4.28-1.93,12.24,1.09-3.64,2.8-9.59,3.15-12.78.67a4.74,4.74,0,0,1,3-.94h4.37A8.86,8.86,0,0,0,434.23,152.52Z" transform="translate(-361.87 -29.43)"/><path class="cls-8" d="M388.43,170.24c-.92,1.23-.27,2.64-.47,4-.29-.31-.62-.58-.88-.91-2.65-3.27-5.79-5.73-10.14-6.24,0-1.55,1.49-1.9,2.26-2.84A16.49,16.49,0,0,1,388.43,170.24Z" transform="translate(-361.87 -29.43)"/><path class="cls-10" d="M430.31,140.72c-2.3,6.05-4.51,11.85-6.73,17.64-.24.64-.48,1.22-1.4.71-.68-.38-.94-.71-.6-1.51q3.3-7.89,6.53-15.81C428.48,140.85,429.09,140.61,430.31,140.72Z" transform="translate(-361.87 -29.43)"/><path class="cls-11" d="M451.31,140.37c-.73-1.29-.57-1.79,1.12-2,3.81-.35,7.61-.32,11.42-.34,2.48,0,2.48,0,1.35,2.27C460.57,140.6,455.94,140.58,451.31,140.37Z" transform="translate(-361.87 -29.43)"/><path class="cls-9" d="M462.63,164.63c.78,1.14,1.9,2.1,2,4.23-2.47-2-4.8-3.49-7.58-4-1.95-.34-3.88-.76-5.82-1.14a7.89,7.89,0,0,1,8-.4,22,22,0,0,0,2.44.85l0,0A1,1,0,0,0,462.63,164.63Z" transform="translate(-361.87 -29.43)"/><path class="cls-5" d="M440.74,170.07c.33-2.2,2.22-3.63,2.83-5.69,1.12.23,2.32.14,3.3.78-.59,1.47-1.25,2.84-1.67,4.28-.22.77-.6.86-1.22.83Z" transform="translate(-361.87 -29.43)"/><path class="cls-8" d="M431.61,173.73a11,11,0,0,1-2.35,8.57c-.72.93-1.41,2.06-2.89,1.9,1.59-2.9,3.21-5.76,3.13-9.24C429.47,173.61,430.69,173.79,431.61,173.73Z" transform="translate(-361.87 -29.43)"/><path class="cls-10" d="M416.36,197.14a6.65,6.65,0,0,1-3.45-5.87c0-.68,0-1.3.94-1.4s1.31.31,1.58,1.1C416.09,192.89,415.73,194.94,416.36,197.14Z" transform="translate(-361.87 -29.43)"/><path class="cls-2" d="M411.59,199.8c-1.09,0-1.53-.58-1.3-1.49a20.87,20.87,0,0,1,1.18-3c.2-.48.51-.65,1-.16,1,1.12,1.68,2.5,3,3.35.63.39.21.87-.46.92C413.86,199.51,412.68,199.27,411.59,199.8Z" transform="translate(-361.87 -29.43)"/><path class="cls-10" d="M403.69,193.28c.92-1.41.75-3.84,3.22-3.74.75,0,1.79-.2,1.86,1a1.62,1.62,0,0,1-1.33,1.75Z" transform="translate(-361.87 -29.43)"/><path class="cls-10" d="M410.59,193.37c-.77,2.4-1.52,4.81-2.32,7.2-.16.5-.29,1.32-1.1,1s-.16-.88,0-1.31c.62-2.28,1.27-4.56,1.9-6.84Z" transform="translate(-361.87 -29.43)"/><path class="cls-9" d="M449.9,165.41c1.2,2.8.66,3.55-2.54,3.55C448.17,167.75,448,165.85,449.9,165.41Z" transform="translate(-361.87 -29.43)"/><path class="cls-11" d="M393.11,142.47a1.05,1.05,0,0,0,.56-1c1.59,1.06,3.21,2.09,3.89,4A17.89,17.89,0,0,1,393.11,142.47Z" transform="translate(-361.87 -29.43)"/><path class="cls-9" d="M410.59,193.37l-1.56,0a9.07,9.07,0,0,1,1.13-2.73c.21-.38.31-.86.87-.72.71.19.55.78.42,1.24C411.22,191.93,410.88,192.64,410.59,193.37Z" transform="translate(-361.87 -29.43)"/><path class="cls-2" d="M487.45,74.22l-2.19-4" transform="translate(-361.87 -29.43)"/><path class="cls-11" d="M430.88,155.47c-1.2,1.16-2.41-.45-3.62,0C429,153.37,429.84,153.37,430.88,155.47Z" transform="translate(-361.87 -29.43)"/><path class="cls-11" d="M484.45,137.19c.69.08,1.6-.3,1.74.86a5.92,5.92,0,0,1-2.19,2.14Z" transform="translate(-361.87 -29.43)"/><path class="cls-8" d="M434.23,152.52a8.86,8.86,0,0,1,5.23.73h-4.37Z" transform="translate(-361.87 -29.43)"/><path class="cls-5" d="M452.18,141.7c0,.52,0,1,0,1.55a4.33,4.33,0,0,1-2.73-1.55Z" transform="translate(-361.87 -29.43)"/><path class="cls-11" d="M467,150.68c.53-.76.78-2.17,2.18-1A5.61,5.61,0,0,1,467,150.68Z" transform="translate(-361.87 -29.43)"/><path class="cls-6" d="M439.05,157.22c-.08.43.17,1.12-.53,1.12a1.12,1.12,0,0,1-1.22-1.12Z" transform="translate(-361.87 -29.43)"/><path class="cls-11" d="M455.5,45.67c-1,.53-2,.81-2.49-.66A5.18,5.18,0,0,1,455.5,45.67Z" transform="translate(-361.87 -29.43)"/><path class="cls-3" d="M453.46,134.66c0-.54.24-.9.86-.91s.84.35.88.89A2.43,2.43,0,0,1,453.46,134.66Z" transform="translate(-361.87 -29.43)"/><path class="cls-7" d="M398.42,60.39c.19,1.07-.28,1.62-1.34,1.71C397.16,61.25,397.94,60.94,398.42,60.39Z" transform="translate(-361.87 -29.43)"/><path class="cls-4" d="M427.7,139.47c.11-.71.29-1.24.95-.31Z" transform="translate(-361.87 -29.43)"/><path class="cls-9" d="M489.28,54.94a.93.93,0,0,1-.9-.42A1,1,0,0,1,489.28,54.94Z" transform="translate(-361.87 -29.43)"/><path class="cls-9" d="M477.47,207.71a.87.87,0,0,1,.89-.43C478.17,207.64,477.82,207.68,477.47,207.71Z" transform="translate(-361.87 -29.43)"/><path class="cls-5" d="M409.5,150.55l.15.47-.51,0Z" transform="translate(-361.87 -29.43)"/><path class="cls-12" d="M400.59,58.28l-.45.79C400,58.65,400.28,58.45,400.59,58.28Z" transform="translate(-361.87 -29.43)"/><path class="cls-2" d="M399.31,201.61l-.1.18.1-.18Z" transform="translate(-361.87 -29.43)"/><path class="cls-1" d="M386.62,152.36a4.13,4.13,0,0,1,2.48-1.7c.52-.11.93-.2,1.14,0,.59.61-1.53,2.26-1.83,5-.05.4-.12,1.41-.77,1.78a1.27,1.27,0,0,1-.55.16,2.14,2.14,0,0,1-1.63-.74c.2-.62.39-1.26.57-1.94C386.27,154,386.46,153.17,386.62,152.36Z" transform="translate(-361.87 -29.43)"/><path class="cls-13" d="M374.92,168.4a1.27,1.27,0,0,0,.89.7,1.17,1.17,0,0,0,.76-.13,12.28,12.28,0,0,1,9.63,6.54c-1.31-.15-1.81-1.35-2.68-2.06-1.76-1.43-3.59-2.62-6.19-2.19,6.88,2.11,13.18,10.48,11.27,22.61.9-1,.89-1,1.09-1.68,1-3.63.28-7.1-.82-10.59-.68-2.14-2.24-3.86-2.67-6.09.29.22.67.37.85.65,3.05,4.7,4.7,9.82,3.85,15.44-.82,5.32-3.91,7.87-8.67,7.38a9.53,9.53,0,0,1-5.55-2.76c-6.82-6.46-9.08-14.21-6.51-23.29,1.09-.17,1.21-1,1.28-1.86a2,2,0,0,0,.77-.48,2.11,2.11,0,0,0,.44-.65l.4-.43a3.84,3.84,0,0,0,.85-.64,4.8,4.8,0,0,0,.5-.6Z" transform="translate(-361.87 -29.43)"/><path class="cls-1" d="M369.17,172.51a17.36,17.36,0,0,1,3.61-3.54,17.09,17.09,0,0,1,2.75-1.63l1,1.63c-.39.14-.94.35-1.59.63-.17.08-.8.35-1.21.56a8.6,8.6,0,0,0-2.32,1.88,7.28,7.28,0,0,0-1.32,4.43c-.33,5.23-.5,7.84-.32,8.75,1.23,6.28,5.66,9.85,6.87,11a9.53,9.53,0,0,0,5.55,2.76c4.76.49,7.85-2.06,8.67-7.38.85-5.62-.8-10.74-3.85-15.44-.18-.28-.56-.43-.85-.65h0a12.28,12.28,0,0,0-9.63-6.54,1.76,1.76,0,0,1-.79-.69,1.7,1.7,0,0,1-.25-.94l1.41-.29c4.35.51,7.49,3,10.14,6.24.26.33.59.6.88.91,3.07,5,4.87,10.29,4.38,16.22-.37,4.37-2.42,8.69-7,9.92-3.11.94-5.77-.13-8.2-1.93-.73-.53-1.55-.72-2.28-1.17-.28-1.58-1.78-2.21-2.62-3.37a24.15,24.15,0,0,1-4.83-16.26c.06-.87,0-1.74,0-2.61a3.23,3.23,0,0,0,1-2.09Z" transform="translate(-361.87 -29.43)"/><path class="cls-1" d="M452.44,85.94l.66-.29,1.66-.69a4.62,4.62,0,0,0,2.19-.49,25.35,25.35,0,0,1,15.43,3.21l1.6,1A30.93,30.93,0,0,1,484.91,103c2.56,7.19.53,12.79-6.14,16.53-2,1.13-4.14,2-6.21,3h0a94.91,94.91,0,0,1-9.9,1.74c-4.47.06-8.76-.37-12.28-3.68-.73-.68-1.06-1.66-1.93-2.18-.19-.28-.39-.55-.58-.82a29.68,29.68,0,0,1-2.74-7.82c0-.72,0-1.45,0-2.18l.18-.39c.59-.17,1.26.85,1.71,0s-.53-1-.87-1.5a1.49,1.49,0,0,0-1.18-.82l-.13-2.07,3.12,3.32c-.36,1.92.33,3.69.71,5.53,1.4,6.82,6.22,10.76,13.17,10.68,3.23-.38,6.57-.13,9.6-1.67A15.7,15.7,0,0,0,481,116c3.17-2.66,3.52-6.16,2.71-9.86a22.52,22.52,0,0,0-6.64-11.22c-3.15-3.08-5.14-3.09-10.05-6a7.85,7.85,0,0,0-2.81-1.07,5.88,5.88,0,0,0-1-.1c-1.37-.06-2.77-.47-4.09.27-5.16.3-9.65,4.37-9.66,8.75l.06.88c-1.26.51-1.18,1.62-1.2,2.69a6.84,6.84,0,0,0-.21.94,6.32,6.32,0,0,0-.08,1.19,3.45,3.45,0,0,0,.95,2c-.33-.17-.77-.34-1-.16s0,1,0,1.9a4.1,4.1,0,0,1-1.07,2.45l-1.76-1a23.26,23.26,0,0,1,1.15-13.46,22.73,22.73,0,0,1,4.28-6.73Z" transform="translate(-361.87 -29.43)"/><path class="cls-11" d="M471.75,147.21c-.23-.1-.57-.18-.58-.27a1.12,1.12,0,0,1,.19-.77c.68-.75,1.39-1.48,2.13-2.17,2.21-2.07,4.43-4.12,6.64-6.18.38-.35.84-.84,1.31-.45.64.52.06,1.21-.29,1.47a78.21,78.21,0,0,0-8.68,7.89A5.63,5.63,0,0,1,471.75,147.21Z" transform="translate(-361.87 -29.43)"/><path class="cls-11" d="M474,88.72l-1.6-1C473.23,87.54,474,87.51,474,88.72Z" transform="translate(-361.87 -29.43)"/><path class="cls-11" d="M472.52,122.54h0c0,.46.69.82.17,1.34a.23.23,0,0,1-.18,0C472,123.43,472.33,123,472.52,122.54Z" transform="translate(-361.87 -29.43)"/><path class="cls-1" d="M453.43,155.21c-.16.6-.41.86-.88.22Z" transform="translate(-361.87 -29.43)"/><path class="cls-11" d="M480.8,129.92c-.13.05-.28.16-.36.13s-.11-.23-.16-.35c.13,0,.28-.16.36-.13S480.75,129.8,480.8,129.92Z" transform="translate(-361.87 -29.43)"/><path class="cls-7" d="M408,66.23c4.1-4.32,9-7.6,13.88-11a48.16,48.16,0,0,1,7.51-4.69l3-.18A10.76,10.76,0,0,0,429,55.62c-.11.4-.56.92-.19,1.17,1.83,1.31,1.06,3.19,1.07,4.81.08,7.39,0,14.78.05,22.17,0,1.12,0,2.19-1.12,2.85-.43.25-.62.57-.3,1,1.09,1.62.09,2.19-1.29,2.56l-3-2.2c-.09-.57-.18-1.1-.88-.43a23.81,23.81,0,0,0-14,0c0-.35,0-.91.15-1,2.1-1.27,1.58-3.31,1.59-5.18,0-2.59-.94-2.65-1.5-5.2,2.06.37-2-2.21-2.05-3.88-.06-1.3,1.35-2.14.94-2.83C408.64,67.25,409.82,66.69,408,66.23Zm16.7,17.06c.06,1.42,1,2.08,1.75,2.94.23.27.76.62,1.12.11s0-.86-.31-1.14C426.39,84.53,425.52,83.92,424.66,83.29Zm-4.92-2.81A2.19,2.19,0,0,0,422,81.69c-.25-.4-.34-.7-.54-.83A1.81,1.81,0,0,0,419.74,80.48Z" transform="translate(-361.87 -29.43)"/><path class="cls-1" d="M409.36,87.6a23.81,23.81,0,0,1,14,0,.88.88,0,0,0,.88.43l3,2.2c5.7,6.7,5.83,14.6,4.19,22.53-.74,3.59-2,7.4-5,10.11-5.24,4.61-11.35,4-17.53,2.85-.71-.13-1.41-.34-2.11-.51a54.6,54.6,0,0,1-9.12-3.89c-5.8-3.48-7.71-7.71-6.28-14.39a9.5,9.5,0,0,0,.1-1.06,33.54,33.54,0,0,1,8.76-13l1.73-1.36C404.34,90.07,406.54,88.25,409.36,87.6Zm5.72,36.93c6.05.15,10.79-3,12.64-8.56a30.53,30.53,0,0,0,1-13.44c-.47-4-1.75-7.54-5-10.19A13.47,13.47,0,0,0,415,89.82a18,18,0,0,0-8.31,2.54c-7.45,3.34-11.94,9.19-13.86,16.92a8.92,8.92,0,0,0,3,8.89,20.79,20.79,0,0,0,11.32,5.11C409.69,124.45,412.43,124.2,415.08,124.53Z" transform="translate(-361.87 -29.43)"/><path class="cls-1" d="M429.91,129.7l-1.33-.81-.74-.89a4.4,4.4,0,0,1,.08-2.91c4.05-4.38,9.37-4.67,14.8-4.47a11.66,11.66,0,0,1,6,1.7c2.74,1.74,2.76,4.18,0,6a18,18,0,0,1-8.05,2.34A23.6,23.6,0,0,1,429.91,129.7ZM445.62,124c-.15-.61-.4-.91-.91-.25l-4.35,0c-2.25-1-8.41.17-10,1.84a2,2,0,0,0-.51,1.6l.43.44h0c1.11,1.23,2.69,1.39,4.15,1.55,4.43.5,8.81.43,12.8-2,1-.6,2.07-1.27,1-2.67a1.22,1.22,0,0,0-1.27-.43Z" transform="translate(-361.87 -29.43)"/><path class="cls-3" d="M454.76,85l-1.66.69c-.08-.71.07-1.32.88-1.46C454.53,84.08,454.7,84.5,454.76,85Z" transform="translate(-361.87 -29.43)"/><path class="cls-3" d="M452.44,85.94l-2,1.47C450.37,85.9,451.3,85.78,452.44,85.94Z" transform="translate(-361.87 -29.43)"/><path class="cls-3" d="M447.83,117.6c.19.27.39.54.58.82C447.92,118.36,447.05,118.56,447.83,117.6Z" transform="translate(-361.87 -29.43)"/><path class="cls-14" d="M409.36,87.6c-2.82.65-5,2.47-7.42,3.9-1,0-1.91,0-1.73,1.36a33.54,33.54,0,0,0-8.76,13c-1.18-2.2-.21-4.44.17-6.53a82.48,82.48,0,0,1,8.55-24.2,27.71,27.71,0,0,1,7.8-8.91c1.85.46,3.28,1.29,3.13,3.52-1.07.33-2.59-.14-3,1.38-.56,2,0,2.51,2.57,2.53a34.48,34.48,0,0,1,.44,7.73c0,1.87.51,3.91-1.59,5.18C409.32,86.69,409.4,87.25,409.36,87.6Z" transform="translate(-361.87 -29.43)"/><path class="cls-1" d="M462.63,164.63a1,1,0,0,1-.9-.45A.91.91,0,0,1,462.63,164.63Z" transform="translate(-361.87 -29.43)"/><path class="cls-4" d="M427.84,128l.74.89c-.27.4-.67.6-1,.26S427.35,128.29,427.84,128Z" transform="translate(-361.87 -29.43)"/><path class="cls-1" d="M481.41,204.24c-1.36.14-2.72.35-4.08.41a8,8,0,0,1-7.3-3.47,15.75,15.75,0,0,1-.83-11.62,6.74,6.74,0,0,0,.43-2.3,34.47,34.47,0,0,1,9.17-11.75c2.07-.8,4-2,6.2-2.45a9.75,9.75,0,0,1,8.63,2.43c4.15,6.55,2.35,12.73-1.19,18.78A25.69,25.69,0,0,1,481.41,204.24Zm5.66-6.12c1.83-.42,2.37-2,3.11-3.43A17.22,17.22,0,0,0,494,182.38c-.53-5.86-5.22-8.6-10.56-6.56-7.32,2.79-14,12.1-13.37,20.08.25,3.07,1.26,5.87,4.28,7,3.24,1.17,6.56.89,9.27-1.7C485.27,200.75,485.86,199.08,487.07,198.12Z" transform="translate(-361.87 -29.43)"/><path class="cls-1" d="M416.79,152l-.31-.14c.26-.24.25,0,.29.16Z" transform="translate(-361.87 -29.43)"/><path class="cls-15" d="M386.2,175.51c.43,2.23,2,4,2.67,6.09,1.1,3.49,1.84,7,.82,10.59-.2.7-.19.7-1.09,1.68,1.91-12.13-4.39-20.5-11.27-22.61,2.6-.43,4.43.76,6.19,2.19.87.71,1.37,1.91,2.68,2.06Z" transform="translate(-361.87 -29.43)"/><path class="cls-6" d="M481,116a15.7,15.7,0,0,1-9.63,4.72,6.84,6.84,0,0,1-.82-2.16c0-3.15-.36-6.3.22-9.44.25-1.34.69-2.9-1.13-3.69v-.86c1.18-.23.83-1.17.84-1.89,0-3.43,0-6.86,0-10.29,5.4,2.84,8.08,7.71,10.09,13.16C481.85,109,481.2,112.5,481,116Z" transform="translate(-361.87 -29.43)"/><path class="cls-2" d="M461.76,122.38a13.2,13.2,0,0,1-8.48-2.61c-3-2.37-4-5.52-4.69-8.07a26.29,26.29,0,0,1,1.14-16.51l9.36-7c.56.16,1.47.4,2.6.65,2.05.46,2.67.44,3.25,1,.39.34,1,1.16.91,3.19.87.2,1.31.4,1.32.62s-1.05.71-3.18,1.11a9.88,9.88,0,0,0-2.25,5.07,9.76,9.76,0,0,0,.46,4.35c-3.12,2.15-6.8,3-10.29,4.26-1.34.48-1.81.67-.75,1.93,2.44,2.89,5.37,4.56,9.26,4.19C461.92,117,461.82,119.68,461.76,122.38Z" transform="translate(-361.87 -29.43)"/><path class="cls-8" d="M461.76,122.38c.06-2.7.16-5.41-1.34-7.84.31-.39.76-.34,1.18-.41a10,10,0,0,0,8-8.71c1.82.79,1.38,2.35,1.13,3.69-.58,3.14-.19,6.29-.22,9.44a6.84,6.84,0,0,0,.82,2.16C468.33,122.25,465,122,461.76,122.38Z" transform="translate(-361.87 -29.43)"/><path class="cls-9" d="M480.91,116.38c0-.53-.1-1.36-.14-2.38-.17-4.1.24-5.56-.28-8.08a15.79,15.79,0,0,0-1.05-3.19c-2.43-5.6-7-8.87-9.21-9.29-.16,0-.74-.14-1.5-.36a15.18,15.18,0,0,1-2.54-1,14.34,14.34,0,0,1-3.75-2.84l.49-1.23a.58.58,0,0,1,.34-.36c.16,0,.23.07.51.13s.4,0,.71,0A2,2,0,0,1,465,88a2.66,2.66,0,0,0,.89.2A12.06,12.06,0,0,1,469,89.62a23.33,23.33,0,0,0,4.51,2.66,12.44,12.44,0,0,1,1.46.8,11.91,11.91,0,0,1,2.15,1.79,28.25,28.25,0,0,1,5,6.78l.82,1.87a9.06,9.06,0,0,1,.73,2.41.85.85,0,0,0,0,.27,1,1,0,0,0,.1.26,5.08,5.08,0,0,1,.52,3.21,10.42,10.42,0,0,0-.34,1.22,1.5,1.5,0,0,1,0,.17s0,.13-.05.26a11.06,11.06,0,0,1-.35,1.2,15.17,15.17,0,0,1-.63,1.51A7.7,7.7,0,0,1,480.91,116.38Z" transform="translate(-361.87 -29.43)"/><path class="cls-2" d="M449.42,96.72c0-4.38,4.5-8.45,9.66-8.75.84.91,2.4.16,3.11,1.36a2.56,2.56,0,0,0-2,2.16l-.65.43c-1,0-2.61-1-2.17,1.32l-.46.75c-1.93.23-2.19,1.58-2.15,3.14l-.06.07C453,97.13,451.13,97.54,449.42,96.72Z" transform="translate(-361.87 -29.43)"/><path class="cls-8" d="M463.17,87.7c-.87.21,1.52,2.39-1,1.63-.71-1.2-2.27-.45-3.11-1.36C460.4,87.23,461.8,87.64,463.17,87.7Z" transform="translate(-361.87 -29.43)"/><path class="cls-2" d="M449.48,97.6a3,3,0,0,1,1.63,1.88c-.93.45-2.06,0-2.83.81C448.3,99.22,448.22,98.11,449.48,97.6Z" transform="translate(-361.87 -29.43)"/><path class="cls-4" d="M424.66,83.29c.86.63,1.73,1.24,2.56,1.91.35.28.61.73.31,1.14s-.89.16-1.12-.11C425.7,85.37,424.72,84.71,424.66,83.29Z" transform="translate(-361.87 -29.43)"/><path class="cls-4" d="M419.74,80.48a1.81,1.81,0,0,1,1.75.38c.2.13.29.43.54.83A2.19,2.19,0,0,1,419.74,80.48Z" transform="translate(-361.87 -29.43)"/><path class="cls-4" d="M424.2,88a.88.88,0,0,1-.88-.43C424,86.93,424.11,87.46,424.2,88Z" transform="translate(-361.87 -29.43)"/><path class="cls-2" d="M407.17,123.28a20.79,20.79,0,0,1-11.32-5.11,8.92,8.92,0,0,1-3-8.89c1.92-7.73,6.41-13.58,13.86-16.92-.41,3.93-1.16,7.89.45,11.75-2.23,3.37-1.85,6.4,1.31,10.46-1.24-.1-1.71.71-1.71,1.71C406.78,118.62,406.42,121,407.17,123.28Z" transform="translate(-361.87 -29.43)"/><path class="cls-6" d="M415,89.82a13.47,13.47,0,0,1,8.75,2.52c-.32.24-.54.57-.37.93,1.46,3.19,1.88,6.63,2.32,10A16.34,16.34,0,0,1,425,112c-3.39-.37-6.35-2.07-9.53-3.09-.05-1.15-.49-2.23-.48-3.42C415.07,100.25,415,95,415,89.82Z" transform="translate(-361.87 -29.43)"/><path class="cls-8" d="M415,89.82c0,5.21,0,10.43,0,15.64,0,1.19.43,2.27.47,3.42a50.9,50.9,0,0,1-8.29-4.77c-1.61-3.86-.86-7.82-.45-11.75A18,18,0,0,1,415,89.82Z" transform="translate(-361.87 -29.43)"/><path class="cls-9" d="M425,112a16.34,16.34,0,0,0,.73-8.65c-.44-3.42-.86-6.86-2.32-10-.17-.36.05-.69.37-.93,3.21,2.65,4.49,6.17,5,10.19a30.53,30.53,0,0,1-1,13.44c-1.85,5.55-6.59,8.71-12.64,8.56,4.33-2.08,7.51-5.15,8.68-10C424.19,113.71,425.07,113.06,425,112Z" transform="translate(-361.87 -29.43)"/><path class="cls-8" d="M423.76,114.56c-1.17,4.82-4.35,7.89-8.68,10-2.65-.33-5.39-.08-7.91-1.25-.75-2.3-.39-4.66-.39-7,0-1,.47-1.81,1.71-1.71a17.44,17.44,0,0,1,1.62,1.07,9.43,9.43,0,0,0,8.47,2C420.64,117.17,422.12,115.73,423.76,114.56Z" transform="translate(-361.87 -29.43)"/><path class="cls-11" d="M400.21,92.86c-.18-1.41.75-1.4,1.73-1.36Z" transform="translate(-361.87 -29.43)"/><path class="cls-8" d="M429.88,127.2a2,2,0,0,1,.51-1.6c1.56-1.67,7.72-2.82,10-1.84-.51.69-1.59,0-2.17,1a21.46,21.46,0,0,0,8.52.11c.12,0,.16-.49.24-.74a1.22,1.22,0,0,1,1.27.43,4.68,4.68,0,0,1-3.56,2.16,72,72,0,0,1-14.37.92h0Z" transform="translate(-361.87 -29.43)"/><path class="cls-9" d="M430.29,127.64a72,72,0,0,0,14.37-.92,4.68,4.68,0,0,0,3.56-2.16c1.09,1.4,0,2.07-1,2.67-4,2.39-8.37,2.46-12.8,2C433,129,431.4,128.87,430.29,127.64Z" transform="translate(-361.87 -29.43)"/><path class="cls-12" d="M447,124.13c-.08.25-.12.72-.24.74a21.46,21.46,0,0,1-8.52-.11c.58-1,1.66-.31,2.17-1l4.35,0a.72.72,0,0,0,.91.25Z" transform="translate(-361.87 -29.43)"/><path class="cls-8" d="M445.62,124a.72.72,0,0,1-.91-.25C445.22,123.08,445.47,123.38,445.62,124Z" transform="translate(-361.87 -29.43)"/><path class="cls-9" d="M429.88,127.2l.43.44Z" transform="translate(-361.87 -29.43)"/><path class="cls-13" d="M483.58,201.17c-2.71,2.59-6,2.87-9.27,1.7-3-1.1-4-3.9-4.28-7-.67-8,6.05-17.29,13.37-20.08,5.34-2,10,.7,10.56,6.56a17.19,17.19,0,0,1-3.79,12.31l-.12-.12c.87-2.94,2.63-5.57,2.95-8.71.31-3-.84-7.41-4.62-7.75l-.18-.1.18.1a9.86,9.86,0,0,1,3.05,8.81,17.73,17.73,0,0,1-3.42,7.83c-.47.64-1.09,1.17-.94,2.08h0a17.51,17.51,0,0,0-1.92.06C482.54,197.28,481.9,199,483.58,201.17Z" transform="translate(-361.87 -29.43)"/><path class="cls-15" d="M483.58,201.17c-1.68-2.14-1-3.89,1.58-4.29a17.51,17.51,0,0,1,1.92-.06v1.3C485.86,199.08,485.27,200.75,483.58,201.17Z" transform="translate(-361.87 -29.43)"/><path class="cls-13" d="M487.07,198.12v-1.3h0c1.59,0,1.56-2.06,3-2.26l.12.12C489.44,196.11,488.9,197.7,487.07,198.12Z" transform="translate(-361.87 -29.43)"/><path class="cls-1" d="M469.63,105.42a10,10,0,0,1-8,8.71c-.42.07-.87,0-1.18.41-3.89.37-6.82-1.3-9.26-4.19-1.06-1.26-.59-1.45.75-1.93,3.49-1.24,7.17-2.11,10.29-4.26a12.6,12.6,0,0,0,4.16-2.19c1.8-1.41,2.53-1.13,3.1,1.1a9.19,9.19,0,0,1,.17,1.49Zm-1.91-2.15a5.73,5.73,0,0,0-3.45,3.44c-1,2.77-3.4,3.65-6.33,2.75a3.09,3.09,0,0,0-1.44-.3c-.73.18-1.79.27-2,1s.75,1.15,1.37,1.48a7.17,7.17,0,0,0,8.11-.54C466.41,109.24,469,107.18,467.72,103.27Z" transform="translate(-361.87 -29.43)"/><path class="cls-8" d="M469.68,104.63a9.31,9.31,0,0,0-.17-1.5c-.57-2.22-1.3-2.51-3.09-1.09a12.81,12.81,0,0,1-4.17,2.18,8.45,8.45,0,0,1-.38-1.25,8.74,8.74,0,0,1-.19-1.48c-.05-1-.17-3.15-.31-6,.38-.67.49-1.08-.54-1.36s-1.89-.85-1.2-2.17l.64-.43c.14,1.49.73,2.56,2.46,2.21s2-1.51,1.53-3c-.15-.5-.16-.85.47-.89.27,0,.7-.08.68.28-.16,2.48.95.75,1.62.5,1.43.07,2.32,1.2,3.5,1.77,0,3.43,0,6.86,0,10.28C470.52,103.45,470.87,104.4,469.68,104.63Z" transform="translate(-361.87 -29.43)"/><path class="cls-2" d="M450.24,102.8c-.69,0-1.12-.39-1.11-1.06a1,1,0,0,1,1.11-1,1,1,0,0,1,1,1A1,1,0,0,1,450.24,102.8Z" transform="translate(-361.87 -29.43)"/><path class="cls-2" d="M454.79,97.13l.17.24-.23-.17Z" transform="translate(-361.87 -29.43)"/><path class="cls-1" d="M423.76,114.56c-1.64,1.17-3.12,2.61-5.18,3a9.43,9.43,0,0,1-8.47-2,17.44,17.44,0,0,0-1.62-1.07c-3.16-4.06-3.54-7.09-1.31-10.46a50.9,50.9,0,0,0,8.29,4.77c3.19,1,6.15,2.72,9.54,3.09C425.07,113.06,424.19,113.71,423.76,114.56Zm-15.94-8a6.54,6.54,0,0,0,2.93,7.66c3,2.08,6.11,2.25,8.84.56.56-.34,1.36-.63,1-1.31s-1,0-1.48.22c-2.75,1.16-6,.25-6.68-2.41S409.79,107.88,407.82,106.54Z" transform="translate(-361.87 -29.43)"/><path class="cls-15" d="M490.05,194.57c-1.42.2-1.39,2.28-3,2.26-.15-.91.47-1.44.94-2.08a17.73,17.73,0,0,0,3.42-7.83,9.86,9.86,0,0,0-3.05-8.81h0c3.78.34,4.93,4.78,4.62,7.75C492.68,189,490.92,191.63,490.05,194.57Z" transform="translate(-361.87 -29.43)"/><path class="cls-15" d="M488.38,178.11l-.18-.1.18.1Z" transform="translate(-361.87 -29.43)"/><path class="cls-11" d="M467.72,103.27c1.27,3.91-1.31,6-3.72,7.83a7.17,7.17,0,0,1-8.11.54c-.62-.33-1.56-.75-1.37-1.48s1.25-.82,2-1a3.09,3.09,0,0,1,1.44.3c2.93.9,5.32,0,6.33-2.75A5.73,5.73,0,0,1,467.72,103.27Z" transform="translate(-361.87 -29.43)"/><path class="cls-3" d="M407.82,106.54c2,1.34,3.92,2.11,4.59,4.72s3.93,3.57,6.68,2.41c.5-.21,1.12-.88,1.48-.22s-.42,1-1,1.31c-2.73,1.69-5.83,1.52-8.84-.56A6.54,6.54,0,0,1,407.82,106.54Z" transform="translate(-361.87 -29.43)"/><path class="cls-1" d="M388.43,150.65" transform="translate(-361.87 -29.43)"/><path class="cls-2" d="M389.06,152.64" transform="translate(-361.87 -29.43)"/><path class="cls-1" d="M388.38,153.64" transform="translate(-361.87 -29.43)"/><path class="cls-3" d="M487,133.41" transform="translate(-361.87 -29.43)"/><path class="cls-3" d="M488.89,134.34" transform="translate(-361.87 -29.43)"/><path class="cls-1" d="M488.67,134.11" transform="translate(-361.87 -29.43)"/><path class="cls-9" d="M458.88,90.14" transform="translate(-361.87 -29.43)"/><path class="cls-9" d="M468.13,90" transform="translate(-361.87 -29.43)"/><path class="cls-8" d="M471.49,102.24" transform="translate(-361.87 -29.43)"/><path class="cls-9" d="M484.19,111.29" transform="translate(-361.87 -29.43)"/></svg>